<svg xmlns="http://www.w3.org/2000/svg" width="18.564" height="22.849" viewBox="0 0 18.564 22.849">
  <path id="Icon_metro-bin" data-name="Icon metro-bin" d="M5.927,9.068v14.28a1.432,1.432,0,0,0,1.428,1.428H20.207a1.432,1.432,0,0,0,1.428-1.428V9.068H5.927Zm4.284,12.852H8.783v-10h1.428Zm2.856,0H11.639v-10h1.428Zm2.856,0H14.495v-10h1.428Zm2.856,0H17.351v-10h1.428ZM21.992,4.784H17.351V3A1.074,1.074,0,0,0,16.28,1.928h-5A1.074,1.074,0,0,0,10.211,3V4.784H5.57A1.074,1.074,0,0,0,4.5,5.855V7.64H23.063V5.855a1.074,1.074,0,0,0-1.071-1.071Zm-6.069,0H11.639V3.374h4.284v1.41Z" transform="translate(-4.499 -1.928)" fill="#f70000"/>
</svg>
