<svg xmlns="http://www.w3.org/2000/svg" width="15.363" height="15.356" viewBox="0 0 15.363 15.356">
  <path id="Icon_simple-cashapp" data-name="Icon simple-cashapp" d="M15.1,2.221A3.265,3.265,0,0,0,13.148.269,9.941,9.941,0,0,0,10,0H5.351A10.326,10.326,0,0,0,2.215.256,3.265,3.265,0,0,0,.262,2.215,10.1,10.1,0,0,0,0,5.351v4.654a10.326,10.326,0,0,0,.256,3.137,3.265,3.265,0,0,0,1.952,1.952,10.1,10.1,0,0,0,3.137.262h4.66a10.3,10.3,0,0,0,3.137-.256A3.265,3.265,0,0,0,15.1,13.142a10.1,10.1,0,0,0,.262-3.137V5.364A10.128,10.128,0,0,0,15.1,2.221Zm-3.95,2.964-.6.6a.32.32,0,0,1-.429.006,3.2,3.2,0,0,0-2.061-.755c-.621,0-1.242.2-1.242.775s.666.768,1.434,1.056c1.344.448,2.458,1.011,2.458,2.33,0,1.434-1.114,2.42-2.932,2.528l-.166.768a.314.314,0,0,1-.307.25H6.164l-.058-.006a.32.32,0,0,1-.243-.378l.179-.813a4.186,4.186,0,0,1-1.844-1V10.53a.307.307,0,0,1,0-.435l.64-.621a.314.314,0,0,1,.429,0,3.1,3.1,0,0,0,2.17.845c.832,0,1.389-.352,1.389-.909s-.563-.7-1.626-1.1c-1.127-.4-2.2-.973-2.2-2.3,0-1.549,1.287-2.3,2.81-2.375l.16-.787A.307.307,0,0,1,8.283,2.6H9.423l.064.006a.306.306,0,0,1,.237.365l-.173.877a4.8,4.8,0,0,1,1.587.89l.013.013A.305.305,0,0,1,11.151,5.185Z" fill="#fff"/>
</svg>
