<svg xmlns="http://www.w3.org/2000/svg" width="19.744" height="15.356" viewBox="0 0 19.744 15.356">
  <path id="Icon_awesome-credit-card" data-name="Icon awesome-credit-card" d="M0,15.961a1.646,1.646,0,0,0,1.645,1.645H18.1a1.646,1.646,0,0,0,1.645-1.645V9.928H0ZM6.581,13.63a.413.413,0,0,1,.411-.411h4.662a.413.413,0,0,1,.411.411V15a.413.413,0,0,1-.411.411H6.993A.413.413,0,0,1,6.581,15Zm-4.388,0a.413.413,0,0,1,.411-.411H5.073a.413.413,0,0,1,.411.411V15a.413.413,0,0,1-.411.411H2.605A.413.413,0,0,1,2.194,15ZM19.744,3.9V5.541H0V3.9A1.646,1.646,0,0,1,1.645,2.25H18.1A1.646,1.646,0,0,1,19.744,3.9Z" transform="translate(0 -2.25)" fill="#fff"/>
</svg>
